<svg width="267" height="267" xmlns="http://www.w3.org/2000/svg" xmlns:xlink="http://www.w3.org/1999/xlink" overflow="hidden"><g transform="translate(-129 -118)"><rect x="130.5" y="119.5" width="38" height="38" stroke="#389826" stroke-width="1.33333" stroke-miterlimit="8" fill="#3FA62A"/><rect x="130.5" y="195.5" width="38" height="37" stroke="#CB3C33" stroke-width="1.33333" stroke-miterlimit="8" fill="#D04B44"/><rect x="130.5" y="345.5" width="38" height="38" stroke="#9558B2" stroke-width="1.33333" stroke-miterlimit="8" fill="#9C64B8"/><rect x="280.5" y="345.5" width="38" height="38" stroke="#4063D8" stroke-width="1.33333" stroke-miterlimit="8" fill="#5273DC"/><rect x="280.5" y="270.5" width="38" height="38" stroke="#389826" stroke-width="1.33333" stroke-miterlimit="8" fill="#3FA62A"/><rect x="280.5" y="119.5" width="38" height="38" stroke="#CB3C33" stroke-width="1.33333" stroke-miterlimit="8" fill="#D04B44"/><rect x="280.5" y="195.5" width="38" height="37" stroke="#9558B2" stroke-width="1.33333" stroke-miterlimit="8" fill="#9C64B8"/><rect x="205.5" y="195.5" width="38" height="37" stroke="#4063D8" stroke-width="1.33333" stroke-miterlimit="8" fill="#5273DC"/><rect x="205.5" y="119.5" width="38" height="38" stroke="#389826" stroke-width="1.33333" stroke-miterlimit="8" fill="#3FA62A"/><rect x="205.5" y="270.5" width="38" height="38" stroke="#CB3C33" stroke-width="1.33333" stroke-miterlimit="8" fill="#D04B44"/><rect x="355.5" y="345.5" width="38" height="38" stroke="#9558B2" stroke-width="1.33333" stroke-miterlimit="8" fill="#9C64B8"/><rect x="355.5" y="195.5" width="38" height="37" stroke="#4063D8" stroke-width="1.33333" stroke-miterlimit="8" fill="#5273DC"/><rect x="205.5" y="345.5" width="38" height="38" stroke="#389826" stroke-width="1.33333" stroke-miterlimit="8" fill="#3FA62A"/><rect x="355.5" y="270.5" width="38" height="38" stroke="#CB3C33" stroke-width="1.33333" stroke-miterlimit="8" fill="#D04B44"/><rect x="355.5" y="119.5" width="38" height="38" stroke="#9558B2" stroke-width="1.33333" stroke-miterlimit="8" fill="#9C64B8"/><rect x="130.5" y="270.5" width="38" height="38" stroke="#4063D8" stroke-width="1.33333" stroke-miterlimit="8" fill="#5273DC"/><path d="M130.5 170.5 395.067 170.5" stroke="#000000" stroke-miterlimit="8" fill="none" fill-rule="evenodd"/><path d="M130.5 183.5 395.067 183.5" stroke="#000000" stroke-miterlimit="8" fill="none" fill-rule="evenodd"/><path d="M130.5 245.5 395.067 245.5" stroke="#000000" stroke-miterlimit="8" fill="none" fill-rule="evenodd"/><path d="M130.5 259.5 395.067 259.5" stroke="#000000" stroke-miterlimit="8" fill="none" fill-rule="evenodd"/><path d="M130.5 321.5 395.067 321.5" stroke="#000000" stroke-miterlimit="8" fill="none" fill-rule="evenodd"/><path d="M130.5 334.5 395.067 334.5" stroke="#000000" stroke-miterlimit="8" fill="none" fill-rule="evenodd"/><path d="M180.5 384.067 180.5 119.5" stroke="#000000" stroke-miterlimit="8" fill="none" fill-rule="evenodd"/><path d="M193.5 384.067 193.5 119.5" stroke="#000000" stroke-miterlimit="8" fill="none" fill-rule="evenodd"/><path d="M255.5 384.067 255.5 119.5" stroke="#000000" stroke-miterlimit="8" fill="none" fill-rule="evenodd"/><path d="M269.5 384.067 269.5 119.5" stroke="#000000" stroke-miterlimit="8" fill="none" fill-rule="evenodd"/><path d="M331.5 384.067 331.5 119.5" stroke="#000000" stroke-miterlimit="8" fill="none" fill-rule="evenodd"/><path d="M344.5 384.067 344.5 119.5" stroke="#000000" stroke-miterlimit="8" fill="none" fill-rule="evenodd"/></g></svg>